<?xml version="1.0" encoding="UTF-8"?>
<svg id="Layer_2" xmlns="http://www.w3.org/2000/svg" xmlns:xlink="http://www.w3.org/1999/xlink" viewBox="0 0 32 32">
  <defs>
    <style>
      .cls-1 {
        mask: url(#mask);
      }

      .cls-2 {
        fill: url(#linear-gradient-4);
      }

      .cls-3 {
        stroke: url(#linear-gradient-2);
      }

      .cls-3, .cls-4, .cls-5, .cls-6 {
        stroke-linecap: round;
      }

      .cls-3, .cls-4, .cls-5, .cls-6, .cls-7 {
        fill: none;
        stroke-width: 1.44px;
      }

      .cls-3, .cls-4, .cls-7 {
        stroke-miterlimit: 10;
      }

      .cls-4 {
        stroke: url(#linear-gradient-3);
      }

      .cls-5, .cls-6 {
        stroke-linejoin: round;
      }

      .cls-5, .cls-7 {
        stroke: #fff;
      }

      .cls-6 {
        stroke: url(#linear-gradient);
      }
    </style>
    <linearGradient id="linear-gradient" x1="18.49" y1="24.51" x2="29.01" y2="13.99" gradientUnits="userSpaceOnUse">
      <stop offset=".1" stop-color="#fff"/>
      <stop offset=".2" stop-color="#cbcbcb"/>
      <stop offset=".32" stop-color="#959595"/>
      <stop offset=".43" stop-color="#686868"/>
      <stop offset=".55" stop-color="#424242"/>
      <stop offset=".66" stop-color="#252525"/>
      <stop offset=".78" stop-color="#101010"/>
      <stop offset=".89" stop-color="#040404"/>
      <stop offset="1" stop-color="#000"/>
    </linearGradient>
    <linearGradient id="linear-gradient-2" x1="32.42" y1="21.81" x2="13.29" y2="2.69" gradientUnits="userSpaceOnUse">
      <stop offset=".1" stop-color="#c6c6c6"/>
      <stop offset="1" stop-color="#000"/>
    </linearGradient>
    <linearGradient id="linear-gradient-3" x1="28.27" y1="23.17" x2="-.16" y2="15.55" gradientUnits="userSpaceOnUse">
      <stop offset=".05" stop-color="#c6c6c6"/>
      <stop offset=".6" stop-color="#fff"/>
    </linearGradient>
    <mask id="mask" x="0" y="0" width="32" height="32" maskUnits="userSpaceOnUse">
      <g>
        <polyline class="cls-6" points="27 13 20.25 18 23 26 16 21"/>
        <polyline class="cls-5" points="16 21 9 26 11.75 18 5 13 13.37 13 16 5 18.63 13 27 13"/>
        <circle cx="27" cy="13" r="1"/>
        <g>
          <path class="cls-3" d="M26.61,26.61c2.71-2.71,4.39-6.46,4.39-10.61,0-8.28-6.72-15-15-15"/>
          <path class="cls-4" d="M5.39,5.39c-2.71,2.71-4.39,6.46-4.39,10.61,0,8.28,6.72,15,15,15,4.14,0,7.89-1.68,10.61-4.39"/>
          <path class="cls-7" d="M16,1c-4.14,0-7.89,1.68-10.61,4.39"/>
        </g>
      </g>
    </mask>
    <linearGradient id="linear-gradient-4" x1="0" y1="32" x2="32" y2="0" gradientUnits="userSpaceOnUse">
      <stop offset=".1" stop-color="#3ddbd9"/>
      <stop offset=".9" stop-color="#4589ff"/>
    </linearGradient>
  </defs>
  <g id="Dark_theme">
    <g id="Expressive_strokes">
      <g id="Blue-teal">
        <g class="cls-1">
          <rect class="cls-2" width="32" height="32"/>
        </g>
      </g>
    </g>
  </g>
</svg>