<?xml version="1.0" encoding="UTF-8"?>
<svg id="Layer_2" xmlns="http://www.w3.org/2000/svg" xmlns:xlink="http://www.w3.org/1999/xlink" viewBox="0 0 32 32">
  <defs>
    <style>
      .cls-1 {
        mask: url(#mask);
      }

      .cls-2 {
        stroke: url(#linear-gradient-7);
      }

      .cls-2, .cls-3, .cls-4, .cls-5, .cls-6, .cls-7, .cls-8, .cls-9, .cls-10, .cls-11, .cls-12, .cls-13, .cls-14, .cls-15, .cls-16, .cls-17, .cls-18, .cls-19 {
        fill: none;
        stroke-linejoin: round;
        stroke-width: 1.44px;
      }

      .cls-2, .cls-3, .cls-4, .cls-5, .cls-6, .cls-12, .cls-13, .cls-14, .cls-15 {
        stroke-linecap: round;
      }

      .cls-3 {
        stroke: url(#linear-gradient-3);
      }

      .cls-4 {
        stroke: url(#linear-gradient-5);
      }

      .cls-5 {
        stroke: url(#linear-gradient-9);
      }

      .cls-6 {
        stroke: url(#linear-gradient);
      }

      .cls-7 {
        stroke: url(#linear-gradient-10);
      }

      .cls-8 {
        stroke: url(#linear-gradient-12);
      }

      .cls-9 {
        stroke: url(#linear-gradient-14);
      }

      .cls-10 {
        stroke: url(#linear-gradient-16);
      }

      .cls-11 {
        stroke: url(#linear-gradient-18);
      }

      .cls-20 {
        fill: url(#linear-gradient-19);
      }

      .cls-12 {
        stroke: url(#linear-gradient-15);
      }

      .cls-13 {
        stroke: url(#linear-gradient-17);
      }

      .cls-14 {
        stroke: url(#linear-gradient-13);
      }

      .cls-15 {
        stroke: url(#linear-gradient-11);
      }

      .cls-16 {
        stroke: url(#linear-gradient-2);
      }

      .cls-17 {
        stroke: url(#linear-gradient-4);
      }

      .cls-18 {
        stroke: url(#linear-gradient-6);
      }

      .cls-19 {
        stroke: url(#linear-gradient-8);
      }
    </style>
    <linearGradient id="linear-gradient" x1="25.99" y1="-1.01" x2="33.01" y2="6.01" gradientUnits="userSpaceOnUse">
      <stop offset=".05" stop-color="#000"/>
      <stop offset=".83" stop-color="#c6c6c6"/>
    </linearGradient>
    <linearGradient id="linear-gradient-2" x1="23.07" y1="2.21" x2="29.79" y2="8.93" gradientUnits="userSpaceOnUse">
      <stop offset=".17" stop-color="#fff"/>
      <stop offset=".83" stop-color="#c6c6c6"/>
    </linearGradient>
    <linearGradient id="linear-gradient-3" y1="10.99" y2="18.01" xlink:href="#linear-gradient"/>
    <linearGradient id="linear-gradient-4" y1="14.21" y2="20.93" xlink:href="#linear-gradient-2"/>
    <linearGradient id="linear-gradient-5" y1="22.99" y2="30.01" xlink:href="#linear-gradient"/>
    <linearGradient id="linear-gradient-6" y1="26.21" y2="32.93" xlink:href="#linear-gradient-2"/>
    <linearGradient id="linear-gradient-7" x1="13.99" y1="22.99" x2="21.01" y2="30.01" xlink:href="#linear-gradient"/>
    <linearGradient id="linear-gradient-8" x1="11.07" y1="26.21" x2="17.79" y2="32.93" xlink:href="#linear-gradient-2"/>
    <linearGradient id="linear-gradient-9" x1="1.99" y1="22.99" x2="9.01" y2="30.01" xlink:href="#linear-gradient"/>
    <linearGradient id="linear-gradient-10" x1="-.93" y1="26.21" x2="5.79" y2="32.93" xlink:href="#linear-gradient-2"/>
    <linearGradient id="linear-gradient-11" x1="13.99" y1="-1.01" x2="21.01" y2="6.01" gradientTransform="translate(20 -12) rotate(90)" xlink:href="#linear-gradient"/>
    <linearGradient id="linear-gradient-12" x1="11.07" y1="2.21" x2="17.79" y2="8.93" gradientTransform="translate(20 -12) rotate(90)" xlink:href="#linear-gradient-2"/>
    <linearGradient id="linear-gradient-13" x1="13.99" y1="10.99" x2="21.01" y2="18.01" gradientTransform="translate(20 -12) rotate(90)" xlink:href="#linear-gradient"/>
    <linearGradient id="linear-gradient-14" x1="11.07" y1="14.21" x2="17.79" y2="20.93" gradientTransform="translate(20 -12) rotate(90)" xlink:href="#linear-gradient-2"/>
    <linearGradient id="linear-gradient-15" x1="25.99" y1="10.99" x2="33.01" y2="18.01" gradientTransform="translate(32 32) rotate(-180)" xlink:href="#linear-gradient"/>
    <linearGradient id="linear-gradient-16" x1="23.07" y1="14.22" x2="29.79" y2="20.94" gradientTransform="translate(32 32) rotate(-180)" xlink:href="#linear-gradient-2"/>
    <linearGradient id="linear-gradient-17" x1="13.99" y1="10.99" x2="21.01" y2="18.01" gradientTransform="translate(32 32) rotate(-180)" xlink:href="#linear-gradient"/>
    <linearGradient id="linear-gradient-18" x1="11.07" y1="14.22" x2="17.79" y2="20.94" gradientTransform="translate(32 32) rotate(-180)" xlink:href="#linear-gradient-2"/>
    <mask id="mask" x="0" y="0" width="32" height="32" maskUnits="userSpaceOnUse">
      <g>
        <polyline class="cls-6" points="31 7 31 1 25 1"/>
        <polyline class="cls-16" points="25 1 25 7 31 7"/>
        <polyline class="cls-3" points="31 19 31 13 25 13"/>
        <polyline class="cls-17" points="25 13 25 19 31 19"/>
        <polyline class="cls-4" points="31 31 31 25 25 25"/>
        <polyline class="cls-18" points="25 25 25 31 31 31"/>
        <polyline class="cls-2" points="19 31 19 25 13 25"/>
        <polyline class="cls-19" points="13 25 13 31 19 31"/>
        <polyline class="cls-5" points="7 31 7 25 1 25"/>
        <polyline class="cls-7" points="1 25 1 31 7 31"/>
        <polyline class="cls-15" points="13 7 19 7 19 1"/>
        <polyline class="cls-8" points="19 1 13 1 13 7"/>
        <polyline class="cls-14" points="1 7 7 7 7 1"/>
        <polyline class="cls-9" points="7 1 1 1 1 7"/>
        <polyline class="cls-12" points="1 13 1 19 7 19"/>
        <polyline class="cls-10" points="7 19 7 13 1 13"/>
        <polyline class="cls-13" points="13 13 13 19 19 19"/>
        <polyline class="cls-11" points="19 19 19 13 13 13"/>
      </g>
    </mask>
    <linearGradient id="linear-gradient-19" x1="0" y1="32" x2="32" y2="0" gradientUnits="userSpaceOnUse">
      <stop offset=".1" stop-color="#3ddbd9"/>
      <stop offset=".9" stop-color="#4589ff"/>
    </linearGradient>
  </defs>
  <g id="Dark_theme">
    <g id="Expressive_strokes">
      <g id="Blue-teal">
        <g class="cls-1">
          <rect class="cls-20" width="32" height="32"/>
        </g>
      </g>
    </g>
  </g>
</svg>